<?xml version="1.0" encoding="UTF-8"?>
<svg version="1.1" xmlns="http://www.w3.org/2000/svg" width="64" height="64">
<path d="M0 0 C1.4540625 0.0309375 1.4540625 0.0309375 2.9375 0.0625 C2.9375 0.7225 2.9375 1.3825 2.9375 2.0625 C3.50259277 2.05202637 4.06768555 2.04155273 4.64990234 2.03076172 C7.20405653 1.98925212 9.75813982 1.9631904 12.3125 1.9375 C13.20195313 1.92074219 14.09140625 1.90398438 15.0078125 1.88671875 C15.85859375 1.88027344 16.709375 1.87382812 17.5859375 1.8671875 C18.76422119 1.85147705 18.76422119 1.85147705 19.96630859 1.83544922 C21.9375 2.0625 21.9375 2.0625 23.9375 4.0625 C24.18473816 6.49145508 24.18473816 6.49145508 24.18041992 9.58203125 C24.18503487 11.313927 24.18503487 11.313927 24.18974304 13.08081055 C24.18255753 14.33289307 24.17537201 15.58497559 24.16796875 16.875 C24.16751053 18.15479736 24.16705231 19.43459473 24.1665802 20.75317383 C24.1650152 23.463434 24.15672454 26.17356211 24.14331055 28.88378906 C24.12632064 32.36092181 24.12249621 35.83790935 24.12325573 39.31507874 C24.12291868 42.62673867 24.11408144 45.93835081 24.10546875 49.25 C24.10435593 50.50208252 24.1032431 51.75416504 24.10209656 53.04418945 C24.09571671 54.19878662 24.08933685 55.35338379 24.08276367 56.54296875 C24.07704597 58.07280396 24.07704597 58.07280396 24.07121277 59.63354492 C23.9375 62.0625 23.9375 62.0625 22.9375 64.0625 C17.6575 64.0625 12.3775 64.0625 6.9375 64.0625 C6.9375 63.4025 6.9375 62.7425 6.9375 62.0625 C13.3725 61.5675 13.3725 61.5675 19.9375 61.0625 C20.2675 42.5825 20.5975 24.1025 20.9375 5.0625 C14.9975 5.5575 14.9975 5.5575 8.9375 6.0625 C8.9375 7.0525 8.9375 8.0425 8.9375 9.0625 C9.57558594 9.05089844 10.21367188 9.03929687 10.87109375 9.02734375 C11.69738281 9.01832031 12.52367187 9.00929688 13.375 9 C14.19871094 8.98839844 15.02242187 8.97679687 15.87109375 8.96484375 C17.9375 9.0625 17.9375 9.0625 18.9375 10.0625 C19.03581146 11.56120048 19.06548456 13.06448539 19.06689453 14.56640625 C19.07004669 15.52409912 19.07319885 16.48179199 19.07644653 17.46850586 C19.0744223 18.51014893 19.07239807 19.55179199 19.0703125 20.625 C19.07126923 21.68662354 19.07222595 22.74824707 19.07321167 23.84204102 C19.07389364 26.09163472 19.07203819 28.34123037 19.06787109 30.59082031 C19.0625231 34.04757071 19.06781554 37.50419117 19.07421875 40.9609375 C19.07355797 43.14062529 19.07227682 45.320313 19.0703125 47.5 C19.07233673 48.54164307 19.07436096 49.58328613 19.07644653 50.65649414 C19.07171829 52.09303345 19.07171829 52.09303345 19.06689453 53.55859375 C19.06609894 54.40607178 19.06530334 55.2535498 19.06448364 56.12670898 C18.9375 58.0625 18.9375 58.0625 17.9375 59.0625 C13.95395067 59.45036413 9.96669959 59.54795234 5.96630859 59.63232422 C3.97233838 59.68655253 1.98004357 59.79398873 -0.01171875 59.90234375 C-6.34455904 60.024006 -11.34229647 59.79740927 -16.4609375 55.8046875 C-22.60375582 48.49874051 -21.03776708 38.52493935 -20.6875 29.5625 C-20.65088267 27.68497072 -20.61829331 25.80735831 -20.58984375 23.9296875 C-20.32477525 10.32477525 -20.32477525 10.32477525 -19.0625 9.0625 C-17.54321962 8.99070036 -16.02082518 8.97857993 -14.5 9 C-13.67371094 9.00902344 -12.84742188 9.01804687 -11.99609375 9.02734375 C-11.35800781 9.03894531 -10.71992188 9.05054688 -10.0625 9.0625 C-10.0625 8.0725 -10.0625 7.0825 -10.0625 6.0625 C-14.0225 5.7325 -17.9825 5.4025 -22.0625 5.0625 C-22.0625 8.0325 -22.0625 11.0025 -22.0625 14.0625 C-22.7225 14.0625 -23.3825 14.0625 -24.0625 14.0625 C-24.08937279 12.25007948 -24.10883715 10.43754767 -24.125 8.625 C-24.13660156 7.61566406 -24.14820312 6.60632813 -24.16015625 5.56640625 C-24.0625 3.0625 -24.0625 3.0625 -23.0625 2.0625 C-21.66052598 1.91828846 -20.25207169 1.83563876 -18.84375 1.78125 C-17.99425781 1.74386719 -17.14476562 1.70648438 -16.26953125 1.66796875 C-13.5625 1.5625 -13.5625 1.5625 -10.85546875 1.45703125 C-10.00597656 1.41964844 -9.15648437 1.38226563 -8.28125 1.34375 C-7.1046582 1.29831055 -7.1046582 1.29831055 -5.90429688 1.25195312 C-3.06681889 0.96008105 -3.32047087 0.06776471 0 0 Z M-1.0625 2.0625 C-1.3925 3.0525 -1.7225 4.0425 -2.0625 5.0625 C-1.0725 5.0625 -0.0825 5.0625 0.9375 5.0625 C0.6075 4.0725 0.2775 3.0825 -0.0625 2.0625 C-0.3925 2.0625 -0.7225 2.0625 -1.0625 2.0625 Z M-7.0625 8.0625 C-6.7325 9.3825 -6.4025 10.7025 -6.0625 12.0625 C-2.1025 12.0625 1.8575 12.0625 5.9375 12.0625 C5.9375 10.7425 5.9375 9.4225 5.9375 8.0625 C1.6475 8.0625 -2.6425 8.0625 -7.0625 8.0625 Z M-17.0625 12.0625 C-17.0625 23.6125 -17.0625 35.1625 -17.0625 47.0625 C-14.4225 47.3925 -11.7825 47.7225 -9.0625 48.0625 C-8.7325 50.7025 -8.4025 53.3425 -8.0625 56.0625 C-4.08334841 56.09136984 -0.10422347 56.10925406 3.875 56.125 C5.57946289 56.13756836 5.57946289 56.13756836 7.31835938 56.15039062 C8.39794922 56.15361328 9.47753906 56.15683594 10.58984375 56.16015625 C11.59007568 56.16539307 12.59030762 56.17062988 13.62084961 56.17602539 C15.89957228 56.32431095 15.89957228 56.32431095 16.9375 55.0625 C17.03018999 53.71155018 17.05497326 52.35582909 17.05102539 51.00170898 C17.05094986 50.14089218 17.05087433 49.28007538 17.05079651 48.39317322 C17.04305458 46.99005638 17.04305458 46.99005638 17.03515625 45.55859375 C17.03303383 44.12907127 17.03303383 44.12907127 17.03086853 42.67066956 C17.02525152 39.61374835 17.01269616 36.55689923 17 33.5 C16.99498719 31.43294376 16.99042391 29.36588638 16.98632812 27.29882812 C16.97527656 22.22002412 16.95800055 17.1412743 16.9375 12.0625 C14.2975 12.0625 11.6575 12.0625 8.9375 12.0625 C8.6075 12.7225 8.2775 13.3825 7.9375 14.0625 C2.3275 14.0625 -3.2825 14.0625 -9.0625 14.0625 C-9.3925 13.4025 -9.7225 12.7425 -10.0625 12.0625 C-12.3725 12.0625 -14.6825 12.0625 -17.0625 12.0625 Z M-14.0625 50.0625 C-13.0725 51.0525 -12.0825 52.0425 -11.0625 53.0625 C-11.0625 52.0725 -11.0625 51.0825 -11.0625 50.0625 C-12.0525 50.0625 -13.0425 50.0625 -14.0625 50.0625 Z " fill="#000000" transform="translate(24.0625,-0.0625)"/>
<path d="M0 0 C0.99 0 1.98 0 3 0 C7.91595731 7.61180487 7.78641625 15.20034968 8 24 C8.99 24 9.98 24 11 24 C10.96690258 26.25062454 10.89742124 28.50073465 10.8125 30.75 C10.77769531 32.00296875 10.74289063 33.2559375 10.70703125 34.546875 C10 38 10 38 7.6796875 40.4296875 C4.22904677 42.45178309 1.93555708 42.44553476 -2 42 C-4 40 -4 40 -4.1953125 36.0859375 C-4.18200376 34.51550649 -4.15813602 32.94513779 -4.125 31.375 C-4.11597656 30.57320312 -4.10695312 29.77140625 -4.09765625 28.9453125 C-4.07406223 26.96341477 -4.03819065 24.98167019 -4 23 C-3.01 23 -2.02 23 -1 23 C-1 22.34 -1 21.68 -1 21 C-1.99 21 -2.98 21 -4 21 C-4.4485551 12.82632933 -4.40744316 7.02436254 0 0 Z M-1 9 C0 12 0 12 0 12 Z M3 9 C4 12 4 12 4 12 Z M-1 15 C-1 15.66 -1 16.32 -1 17 C0.65 17 2.3 17 4 17 C4 16.34 4 15.68 4 15 C2.35 15 0.7 15 -1 15 Z M3 20 C3 23.96 3 27.92 3 32 C3.33 32 3.66 32 4 32 C4 28.04 4 24.08 4 20 C3.67 20 3.34 20 3 20 Z M-1 35 C-1 36.32 -1 37.64 -1 39 C0.65 39 2.3 39 4 39 C4 37.68 4 36.36 4 35 C2.35 35 0.7 35 -1 35 Z " fill="#000000" transform="translate(53,6)"/>
<path d="M0 0 C0.66 0 1.32 0 2 0 C2.33 15.18 2.66 30.36 3 46 C16.365 46.495 16.365 46.495 30 47 C30 47.66 30 48.32 30 49 C20.1 49 10.2 49 0 49 C0 32.83 0 16.66 0 0 Z " fill="#000000" transform="translate(0,15)"/>
<path d="M0 0 C6.27 0 12.54 0 19 0 C19 0.99 19 1.98 19 3 C12.73 3 6.46 3 0 3 C0 2.01 0 1.02 0 0 Z " fill="#000000" transform="translate(16,36)"/>
<path d="M0 0 C6.27 0 12.54 0 19 0 C19 0.99 19 1.98 19 3 C12.73 3 6.46 3 0 3 C0 2.01 0 1.02 0 0 Z " fill="#000000" transform="translate(16,19)"/>
<path d="M0 0 C5.61 0 11.22 0 17 0 C16.67 0.99 16.34 1.98 16 3 C11.05 3 6.1 3 1 3 C0.67 2.01 0.34 1.02 0 0 Z " fill="#000000" transform="translate(15,45)"/>
<path d="M0 0 C4.95 0 9.9 0 15 0 C15.33 0.99 15.66 1.98 16 3 C10.39 3 4.78 3 -1 3 C-0.67 2.01 -0.34 1.02 0 0 Z " fill="#000000" transform="translate(16,23)"/>
<path d="M0 0 C6.6 0 13.2 0 20 0 C20 0.66 20 1.32 20 2 C13.4 2 6.8 2 0 2 C0 1.34 0 0.68 0 0 Z " fill="#000000" transform="translate(15,41)"/>
<path d="M0 0 C6.6 0 13.2 0 20 0 C20 0.66 20 1.32 20 2 C13.4 2 6.8 2 0 2 C0 1.34 0 0.68 0 0 Z " fill="#000000" transform="translate(15,28)"/>
<path d="M0 0 C0.99 0 1.98 0 3 0 C3 1.32 3 2.64 3 4 C2.01 4 1.02 4 0 4 C0 2.68 0 1.36 0 0 Z " fill="#000000" transform="translate(10,27)"/>
<path d="M0 0 C0.99 0 1.98 0 3 0 C2.67 1.32 2.34 2.64 2 4 C1.34 3.67 0.68 3.34 0 3 C0 2.01 0 1.02 0 0 Z " fill="#000000" transform="translate(10,36)"/>
<path d="M0 0 C0.99 0 1.98 0 3 0 C3 0.99 3 1.98 3 3 C2.01 3 1.02 3 0 3 C0 2.01 0 1.02 0 0 Z " fill="#000000" transform="translate(10,19)"/>
</svg>
