<?xml version="1.0" standalone="no"?>
<!DOCTYPE svg PUBLIC "-//W3C//DTD SVG 20010904//EN"
 "http://www.w3.org/TR/2001/REC-SVG-20010904/DTD/svg10.dtd">
<svg version="1.0" xmlns="http://www.w3.org/2000/svg"
 width="512.000000pt" height="512.000000pt" viewBox="0 0 512.000000 512.000000"
 preserveAspectRatio="xMidYMid meet">

<g transform="translate(0.000000,512.000000) scale(0.100000,-0.100000)"
fill="#000000" stroke="none">
<path d="M2370 5110 c-387 -47 -740 -224 -1010 -507 -227 -237 -377 -528 -436
-848 -26 -140 -26 -408 -1 -520 126 -541 585 -1352 1326 -2340 269 -359 282
-372 341 -344 19 9 89 93 196 234 748 989 1223 1793 1379 2334 48 166 59 259
52 425 -7 157 -29 281 -77 431 -66 207 -200 438 -341 589 -64 69 -74 76 -109
76 -31 0 -44 -6 -65 -32 -36 -42 -28 -76 33 -145 255 -292 385 -622 386 -983
0 -106 -5 -154 -22 -225 -96 -390 -328 -846 -767 -1510 -241 -364 -672 -960
-695 -960 -22 0 -438 574 -679 935 -512 769 -773 1316 -806 1690 -9 99 10 278
45 417 127 504 522 912 1026 1058 157 46 268 58 463 52 197 -6 267 -18 443
-78 124 -42 152 -43 185 -7 24 27 23 92 -2 117 -40 37 -225 97 -390 126 -108
19 -370 27 -475 15z"/>
<path d="M2448 4150 c-150 -27 -268 -89 -379 -200 -73 -73 -94 -100 -132 -180
-60 -126 -72 -181 -71 -320 1 -95 6 -129 27 -195 36 -110 89 -196 172 -281
192 -195 468 -259 728 -169 101 35 172 81 257 165 87 87 140 172 177 285 37
112 39 284 4 395 -39 127 -87 206 -181 300 -93 94 -173 142 -295 180 -79 24
-232 34 -307 20z m247 -185 c88 -23 153 -62 230 -140 110 -110 155 -215 155
-365 0 -150 -45 -255 -155 -365 -164 -164 -389 -201 -603 -98 -70 34 -186 147
-224 219 -79 148 -77 343 3 495 36 66 131 162 203 204 105 61 267 82 391 50z"/>
<path d="M1061 2044 c-85 -60 -43 -194 61 -194 50 0 74 13 93 50 40 77 -6 159
-90 160 -22 0 -51 -7 -64 -16z"/>
<path d="M3975 1935 c-27 -26 -33 -72 -15 -105 6 -11 67 -46 135 -79 173 -83
312 -176 411 -276 153 -155 206 -317 156 -482 -114 -374 -724 -678 -1587 -790
-203 -26 -827 -26 -1030 0 -425 55 -760 146 -1040 282 -308 149 -488 317 -547
508 -67 222 58 449 354 642 103 67 121 106 72 164 -46 55 -93 40 -254 -77
-264 -193 -399 -455 -360 -697 24 -149 88 -263 225 -401 310 -312 858 -519
1585 -601 217 -24 742 -24 960 0 575 64 1050 213 1385 434 117 77 283 239 334
325 120 205 130 395 31 603 -92 193 -290 363 -595 512 -145 70 -182 77 -220
38z"/>
</g>
</svg>
